<?xml version="1.0" encoding="UTF-8"?>
<svg id="Camada_2" data-name="Camada 2" xmlns="http://www.w3.org/2000/svg" viewBox="0 0 30 26.48">
  <defs>
    <style>
      .cls-1 {
        fill: #db3069;
      }
    </style>
  </defs>
  <g id="Camada_1-2" data-name="Camada 1">
    <g>
      <path class="cls-1" d="M.62,7.09h7.78l-4.03,14.5c-.19.67-.29,1.23-.29,1.68,0,.67.22,1.01.67,1.01.93,0,2.32-1.6,4.18-4.8.1-.16.22-.24.38-.24s.24.1.24.29l-.1.29c-.54.99-1.06,1.9-1.56,2.71-.5.82-1.01,1.51-1.54,2.09-.53.58-1.09,1.02-1.68,1.34-.59.32-1.27.48-2.04.48-.32,0-.64-.03-.96-.1-.32-.06-.6-.18-.84-.36-.24-.18-.44-.44-.6-.79-.16-.35-.24-.82-.24-1.39,0-.42.04-.89.12-1.42.08-.53.22-1.14.41-1.85l3.5-12.67H.43l.19-.77ZM8.97,4.1c-.45.56-1.12.84-2.02.84-.8,0-1.39-.23-1.78-.7-.38-.46-.58-1-.58-1.61,0-.64.22-1.24.67-1.8.45-.56,1.12-.84,2.02-.84.8,0,1.39.23,1.78.7.38.46.58,1,.58,1.61,0,.64-.22,1.24-.67,1.8Z"/>
      <path class="cls-1" d="M16.42,7.09l-.86,3.17c.26-.35.56-.74.91-1.18.35-.43.8-.83,1.34-1.2.54-.37,1.18-.68,1.92-.94.74-.26,1.62-.38,2.64-.38,1.38,0,2.48.3,3.31.91.83.61,1.25,1.65,1.25,3.12,0,.35-.04.78-.12,1.27-.08.5-.26,1.29-.55,2.38l-1.87,6.72c-.22.8-.37,1.39-.43,1.78-.06.38-.1.7-.1.96,0,.8.26,1.2.77,1.2.48,0,1.11-.44,1.9-1.32.78-.88,1.67-2.28,2.66-4.2.13-.22.27-.34.43-.34.26,0,.38.14.38.43,0,.03-.03.14-.1.34-.51.99-1,1.9-1.46,2.71-.46.82-.94,1.52-1.44,2.11-.5.59-1.04,1.05-1.63,1.37-.59.32-1.29.48-2.09.48-1.02,0-1.83-.28-2.42-.84-.59-.56-.89-1.43-.89-2.62,0-.35.04-.76.12-1.22.08-.46.25-1.19.5-2.18l1.54-5.62c.26-.99.45-1.78.58-2.38.13-.59.19-1.11.19-1.56,0-.83-.21-1.46-.62-1.87-.42-.42-.9-.62-1.44-.62s-1.14.2-1.78.6c-.64.4-1.26.91-1.87,1.54-.61.62-1.15,1.33-1.63,2.11-.48.78-.83,1.56-1.06,2.33l-3.26,11.76h-4.08L12.1,7.86l.2-1.04"/>
    </g>
  </g>
</svg>