<?xml version="1.0" encoding="UTF-8"?>
<svg id="Camada_2" data-name="Camada 2" xmlns="http://www.w3.org/2000/svg" viewBox="0 0 870.15 733.17">
  <defs>
    <style>
      .cls-1 {
        stroke: #f3752b;
        stroke-linecap: round;
        stroke-width: 36.59px;
      }

      .cls-1, .cls-2, .cls-3 {
        stroke-miterlimit: 10;
      }

      .cls-1, .cls-3 {
        fill: none;
      }

      .cls-4 {
        fill: #f5d547;
      }

      .cls-5 {
        fill: #db3069;
      }

      .cls-2 {
        fill: #2176ae;
        stroke-width: 32.02px;
      }

      .cls-2, .cls-3 {
        stroke: #2176ae;
      }

      .cls-6 {
        fill: #66d7d1;
      }

      .cls-3 {
        stroke-width: 28.59px;
      }
    </style>
  </defs>
  <g id="pattern">
    <g>
      <g>
        <path class="cls-4" d="M109.94,282.89l-5.49,31.16L.54,349.22c4.57-8.68,52.59-36.53,109.4-66.33Z"/>
        <path class="cls-4" d="M120.16,277.55c8.87-4.61,17.91-9.24,26.97-13.82l-6.71,38.16-26.09,8.83,5.83-33.16Z"/>
        <path class="cls-4" d="M157.32,258.59c9.36-4.7,18.72-9.32,27.92-13.81l-7.84,44.58-27.1,9.17,7.02-39.94Z"/>
        <path class="cls-4" d="M195.4,239.84c8.95-4.32,17.7-8.48,26.13-12.43l-8.78,49.97-1.77.61-10.29,3.5-13.4,4.54,8.12-46.18Z"/>
        <path class="cls-4" d="M231.64,222.71c10.99-5.07,21.27-9.67,30.52-13.65l-9.64,54.79-3.94,1.34-10.29,3.5-15.66,5.33,9.02-51.31Z"/>
        <path class="cls-4" d="M298.68,194.95l-9.96,56.59-5.66,1.93-10.3,3.5-10.36,3.52,9.8-55.68c11.09-4.61,20.17-8.02,26.48-9.86Z"/>
        <path class="cls-4" d="M330.98,237.16l-32.37,11.01,9.57-54.42c12.54,8.08,22.8,43.4,22.8,43.4Z"/>
        <path class="cls-4" d="M408.5,432.13c.13.3-.02.65-.32.77-14.73,5.72-314.61,121.88-343.61,111.84C37.15,535.25,4.88,375.04.01,350.16c-.09-.44.33-.8.75-.66,14.98,5.04,129.45-22.76,221.36-46.57,2.72-.7,5.42-1.41,8.1-2.09,10.21-2.66,20.09-5.26,29.47-7.73,2.74-.72,5.45-1.44,8.11-2.15,6.54-1.73,12.77-3.38,18.66-4.95,2.79-.75,5.51-1.47,8.13-2.17,24.99-6.71,42.04-11.4,45.07-12.24.28-.08.57.07.68.34l68.17,160.2Z"/>
      </g>
      <g>
        <path class="cls-3" d="M850.14,247.52c0-164.65-34.3-228.68-141.78-228.68s-149.79,70.89-149.79,232.12"/>
        <path class="cls-2" d="M801.45,214.5c13.47-8.37,31.28,3.36,41.18,19.44,15.61,25.36,15.59,68.08-1.55,92.62-12.21,17.47-32.81,25.31-45.84,13.72-24.45-21.74-19.8-109.62,6.22-125.78Z"/>
        <path class="cls-1" d="M611.17,51.99c51.45-49.17,155.51-41.16,195.53,2.29"/>
        <path class="cls-2" d="M608.74,214.52c-13.47-8.37-31.28,3.36-41.18,19.44-15.61,25.36-15.59,68.08,1.55,92.62,12.21,17.47,32.81,25.31,45.84,13.72,24.45-21.74,19.8-109.62-6.22-125.78Z"/>
      </g>
      <g>
        <path class="cls-6" d="M508.52,112.37H16.65c-7.05,0-12.77-7.65-12.77-17.09v-13.11c0-9.44,5.72-17.09,12.77-17.09h491.87c7.05,0,12.77,7.65,12.77,17.09v13.11c0,9.44-5.72,17.09-12.77,17.09Z"/>
        <path class="cls-6" d="M163.84,92.89c0-31.99,0-93.19-29.21-90.41-23.49,2.24-30.6,22.25-30.6,82.06s8.45,96.56,23.64,97.36c26.43,1.39,36.16-57.03,36.16-89.01Z"/>
        <path class="cls-6" d="M426.04,93.28c0-31.99,0-93.19-29.21-90.41-23.49,2.24-30.6,22.25-30.6,82.06s8.45,96.56,23.64,97.36c26.43,1.39,36.16-57.03,36.16-89.01Z"/>
        <path class="cls-6" d="M468.98,93.62c0-22.87,0-66.63-20.88-64.64-16.8,1.6-21.88,15.91-21.88,58.67s6.04,69.04,16.91,69.61c18.89.99,25.86-40.77,25.86-63.65Z"/>
        <path class="cls-6" d="M104.58,90.1c0-22.87,0-66.63-20.88-64.64-16.8,1.6-21.88,15.91-21.88,58.67s6.04,69.04,16.91,69.61c18.89.99,25.86-40.77,25.86-63.65Z"/>
      </g>
      <path class="cls-5" d="M414.6,504.48c-18.48-49.4,146.36-91.47,146.36-91.47,0,0,16.01,49.17,54.88,49.17s52.6-56.03,52.6-56.03c0,0,171.26,51.88,161.22,105.2-6.19,32.88-46.77,61.83-81.18,58.31-40.53-4.14-65.36-52.57-68.61-50.31-5.98,4.17,91.47,206.96,91.47,206.96l-277.85,6.86s61.6-192.83,46.88-201.24c-6.6-3.78-21.12,25.04-53.74,33.16-36.73,9.14-60.61-30.05-72.04-60.6Z"/>
    </g>
  </g>
</svg>