<?xml version="1.0" encoding="UTF-8"?>
<svg id="Camada_2" data-name="Camada 2" xmlns="http://www.w3.org/2000/svg" viewBox="0 0 416.93 327.02">
  <defs>
    <style>
      .cls-1 {
        fill: #db3069;
      }
    </style>
  </defs>
  <g id="pattern">
    <path class="cls-1" d="M1.44,98.33C-17.03,48.94,147.8,6.86,147.8,6.86c0,0,16.01,49.17,54.88,49.17S255.28,0,255.28,0c0,0,171.26,51.88,161.22,105.2-6.19,32.88-46.77,61.83-81.18,58.31-40.53-4.14-65.36-52.57-68.61-50.31-5.98,4.17,91.47,206.96,91.47,206.96l-277.85,6.86s61.6-192.83,46.88-201.24c-6.6-3.78-21.12,25.04-53.74,33.16-36.73,9.14-60.61-30.05-72.04-60.6Z"/>
  </g>
</svg>