<?xml version="1.0" encoding="UTF-8"?>
<svg id="Camada_2" data-name="Camada 2" xmlns="http://www.w3.org/2000/svg" viewBox="0 0 408.55 351.6">
  <defs>
    <style>
      .cls-1 {
        fill: #f5d547;
      }
    </style>
  </defs>
  <g id="pattern">
    <g>
      <path class="cls-1" d="M109.94,89.13l-5.49,31.16L.54,155.46c4.57-8.68,52.59-36.53,109.4-66.33Z"/>
      <path class="cls-1" d="M120.16,83.79c8.87-4.61,17.91-9.24,26.97-13.82l-6.71,38.16-26.09,8.83,5.83-33.16Z"/>
      <path class="cls-1" d="M157.32,64.83c9.36-4.7,18.72-9.32,27.92-13.81l-7.84,44.58-27.1,9.17,7.02-39.94Z"/>
      <path class="cls-1" d="M195.4,46.08c8.95-4.32,17.7-8.48,26.13-12.43l-8.78,49.97-1.77.61-10.29,3.5-13.4,4.54,8.12-46.18Z"/>
      <path class="cls-1" d="M231.64,28.95c10.99-5.07,21.27-9.67,30.52-13.65l-9.64,54.79-3.94,1.34-10.29,3.5-15.66,5.33,9.02-51.31Z"/>
      <path class="cls-1" d="M298.68,1.19l-9.96,56.59-5.66,1.93-10.3,3.5-10.36,3.52,9.8-55.68c11.09-4.61,20.17-8.02,26.48-9.86Z"/>
      <path class="cls-1" d="M330.98,43.4l-32.37,11.01L308.18,0c12.54,8.08,22.8,43.4,22.8,43.4Z"/>
      <path class="cls-1" d="M408.5,238.37c.13.3-.02.65-.32.77-14.73,5.72-314.61,121.88-343.61,111.84C37.15,341.49,4.88,181.28.01,156.4c-.09-.44.33-.8.75-.66,14.98,5.04,129.45-22.76,221.36-46.57,2.72-.7,5.42-1.41,8.1-2.09,10.21-2.66,20.09-5.26,29.47-7.73,2.74-.72,5.45-1.44,8.11-2.15,6.54-1.73,12.77-3.38,18.66-4.95,2.79-.75,5.51-1.47,8.13-2.17,24.99-6.71,42.04-11.4,45.07-12.24.28-.08.57.07.68.34l68.17,160.2Z"/>
    </g>
  </g>
</svg>