<?xml version="1.0" encoding="UTF-8"?>
<svg id="Camada_2" data-name="Camada 2" xmlns="http://www.w3.org/2000/svg" viewBox="0 0 330.12 361.79">
  <defs>
    <style>
      .cls-1 {
        stroke: #f3752b;
        stroke-linecap: round;
        stroke-width: 36.59px;
      }

      .cls-1, .cls-2, .cls-3 {
        stroke-miterlimit: 10;
      }

      .cls-1, .cls-3 {
        fill: none;
      }

      .cls-2 {
        fill: #2176ae;
        stroke-width: 32.02px;
      }

      .cls-2, .cls-3 {
        stroke: #2176ae;
      }

      .cls-3 {
        stroke-width: 28.59px;
      }
    </style>
  </defs>
  <g id="pattern">
    <g>
      <path class="cls-3" d="M310.11,247.52c0-164.65-34.3-228.68-141.78-228.68S18.53,89.72,18.53,250.95"/>
      <path class="cls-2" d="M261.41,214.5c13.47-8.37,31.28,3.36,41.18,19.44,15.61,25.36,15.59,68.08-1.55,92.62-12.21,17.47-32.81,25.31-45.84,13.72-24.45-21.74-19.8-109.62,6.22-125.78Z"/>
      <path class="cls-1" d="M71.13,51.99c51.45-49.17,155.51-41.16,195.53,2.29"/>
      <path class="cls-2" d="M68.7,214.52c-13.47-8.37-31.28,3.36-41.18,19.44-15.61,25.36-15.59,68.08,1.55,92.62,12.21,17.47,32.81,25.31,45.84,13.72,24.45-21.74,19.8-109.62-6.22-125.78Z"/>
    </g>
  </g>
</svg>