<?xml version="1.0" encoding="UTF-8"?>
<svg id="Camada_2" data-name="Camada 2" xmlns="http://www.w3.org/2000/svg" viewBox="0 0 2193 534.6">
  <defs>
    <style>
      .cls-1 {
        fill: #dc316a;
      }
    </style>
  </defs>
  <g id="capa">
    <g>
      <path class="cls-1" d="M28,121.02l147,1-88.11,315.18c-3.82,13.37-5.73,24.51-5.73,33.42,0,13.37,4.45,20.05,13.37,20.05,18.46,0,46.15-31.82,83.07-95.49,1.91-3.18,4.45-4.77,7.64-4.77s4.77,1.91,4.77,5.73l-1.91,5.73c-10.83,19.74-21.17,37.72-31.03,53.95-9.88,16.23-20.05,30.08-30.56,41.54-10.5,11.46-21.65,20.38-33.42,26.74-11.79,6.36-25.3,9.55-40.58,9.55-6.37,0-12.74-.64-19.1-1.91-6.37-1.28-11.94-3.67-16.71-7.16-4.77-3.49-8.76-8.74-11.94-15.75-3.19-7-4.77-16.23-4.77-27.69,0-8.26.79-17.66,2.39-28.17,1.58-10.5,4.3-22.75,8.12-36.76L86,143.02H24l4-22ZM178.39,89.43c-8.92,11.15-22.29,16.71-40.1,16.71-15.92,0-27.69-4.61-35.33-13.84-7.64-9.22-11.46-19.89-11.46-31.99,0-12.73,4.45-24.66,13.37-35.81,8.91-11.13,22.27-16.71,40.1-16.71,15.9,0,27.69,4.62,35.33,13.84,7.64,9.23,11.46,19.9,11.46,31.99,0,12.74-4.46,24.68-13.37,35.81Z"/>
      <path class="cls-1" d="M335,121.02l-25.63,90.84c5.09-7,11.37-14.61,18.14-23.39,53.48-69.44,93.5-69.71,127.48-67.44,60,4,88,50,78.29,122.83-1.32,9.92-5.25,25.63-10.98,47.27l-37.24,133.68c-4.46,15.92-7.33,27.69-8.59,35.33-1.28,7.64-1.91,14.01-1.91,19.1,0,15.92,5.09,23.87,15.28,23.87,9.55,0,22.11-8.74,37.72-26.26,15.59-17.5,33.26-45.36,53-83.55,2.54-4.45,5.4-6.68,8.59-6.68,5.09,0,7.64,2.86,7.64,8.59,0,.64-.64,2.86-1.91,6.68-10.19,19.74-19.9,37.72-29.12,53.95-9.23,16.23-18.78,30.24-28.65,42.01-9.88,11.79-20.69,20.86-32.47,27.21-11.79,6.36-25.63,9.55-41.54,9.55-20.38,0-36.45-5.58-48.22-16.71-11.79-11.13-17.67-28.48-17.67-52.04,0-7,.79-15.11,2.39-24.35,1.58-9.22,4.92-23.71,10.03-43.45l30.56-111.72c5.09-19.72,8.91-35.48,11.46-47.27,2.54-11.77,3.82-22.11,3.82-31.03,0-16.55-4.15-28.96-12.41-37.24-8.28-8.27-17.83-12.41-28.65-12.41s-22.6,3.98-35.33,11.94c-12.74,7.97-25.15,18.14-37.24,30.56-12.1,12.41-22.92,26.42-32.46,42.01-9.55,15.61-16.56,31.03-21.01,46.31l-64.93,233.94h-81.16l98.35-359.03,10.38-43.09"/>
      <path class="cls-1" d="M578.29,420.38v-239.77h-65.39v-59.16h65.39V0h82.52v121.44h92.64v59.16h-92.64v242.11c0,35.03,13.23,45.15,49.82,45.15l42.82-.78v56.05c-16.35,1.56-45.15,3.89-61.5,3.89-84.08,0-113.66-24.91-113.66-106.65Z"/>
      <path class="cls-1" d="M722.3,322.29c0-123.78,66.95-208.63,193.84-208.63s193.84,86.41,193.84,201.63c0,7.78-.78,14.79-1.56,22.58h-303.61c2.33,94.97,47.49,136.23,115.99,136.23,56.83,0,92.64-29.58,105.09-75.51h75.51c-17.9,81.74-76.29,132.34-180.61,132.34-127.67,0-198.51-80.96-198.51-208.63ZM804.82,283.37h222.65c-8.56-75.51-49.04-112.88-111.32-112.88s-102.76,37.37-111.32,112.88Z"/>
      <path class="cls-1" d="M1374.07,523.14v-250.67c0-60.72-21.8-91.86-78.63-91.86-59.94,0-98.87,45.15-98.87,118.33v224.2h-82.52V121.44h78.63v70.06c21.8-46.71,60.72-77.85,127.67-77.85,91.86,0,136.23,46.71,136.23,144.02v265.46h-82.52Z"/>
      <path class="cls-1" d="M1460.65,398.58h79.4c3.89,45.93,24.13,77.07,95.75,77.07s91.08-30.36,91.08-64.61c0-31.92-23.35-48.26-61.5-53.71l-73.95-10.9c-84.08-11.68-119.89-41.26-119.89-108.21s43.59-124.56,163.48-124.56,163.48,55.27,163.48,126.11h-79.41c-3.89-37.37-16.35-70.84-84.85-70.84-58.39,0-80.18,24.13-80.18,63.06,0,32.7,18.68,44.37,49.82,49.04l73.96,10.9c81.74,11.68,131.56,41.26,131.56,114.44,0,69.28-48.27,124.56-174.38,124.56s-174.38-55.27-174.38-132.34Z"/>
      <path class="cls-1" d="M1805.32,322.29c0-123.78,66.95-208.63,193.84-208.63s193.84,86.41,193.84,201.63c0,7.78-.78,14.79-1.56,22.58h-303.61c2.33,94.97,47.49,136.23,115.99,136.23,56.83,0,92.64-29.58,105.09-75.51h75.51c-17.9,81.74-76.29,132.34-180.61,132.34-127.67,0-198.51-80.96-198.51-208.63ZM1887.84,283.37h222.65c-8.56-75.51-49.04-112.88-111.32-112.88s-102.76,37.37-111.32,112.88Z"/>
    </g>
  </g>
</svg>