<?xml version="1.0" encoding="UTF-8"?>
<svg id="Camada_2" data-name="Camada 2" xmlns="http://www.w3.org/2000/svg" viewBox="0 0 517.4 179.92">
  <defs>
    <style>
      .cls-1 {
        fill: #66d7d1;
      }
    </style>
  </defs>
  <g id="pattern">
    <g>
      <path class="cls-1" d="M504.63,109.97H12.77c-7.05,0-12.77-7.65-12.77-17.09v-13.11c0-9.44,5.72-17.09,12.77-17.09h491.87c7.05,0,12.77,7.65,12.77,17.09v13.11c0,9.44-5.72,17.09-12.77,17.09Z"/>
      <path class="cls-1" d="M159.95,90.5c0-31.99,0-93.19-29.21-90.41-23.49,2.24-30.6,22.25-30.6,82.06s8.45,96.56,23.64,97.36c26.43,1.39,36.16-57.03,36.16-89.01Z"/>
      <path class="cls-1" d="M422.16,90.88c0-31.99,0-93.19-29.21-90.41-23.49,2.24-30.6,22.25-30.6,82.06s8.45,96.56,23.64,97.36c26.43,1.39,36.16-57.03,36.16-89.01Z"/>
      <path class="cls-1" d="M465.09,91.22c0-22.87,0-66.63-20.88-64.64-16.8,1.6-21.88,15.91-21.88,58.67s6.04,69.04,16.91,69.61c18.89.99,25.86-40.77,25.86-63.65Z"/>
      <path class="cls-1" d="M100.69,87.7c0-22.87,0-66.63-20.88-64.64-16.8,1.6-21.88,15.91-21.88,58.67s6.04,69.04,16.91,69.61c18.89.99,25.86-40.77,25.86-63.65Z"/>
    </g>
  </g>
</svg>